<svg width="250" height="250" viewBox="0 0 250 250" fill="none" xmlns="http://www.w3.org/2000/svg">
<g clip-path="url(#clip0)">
<g filter="url(#filter0_d)">
<rect x="-4" y="125" width="183" height="183" rx="25" transform="rotate(-44.8621 -4 125)" fill="#C34D60"/>
</g>
<g filter="url(#filter1_d)">
<path d="M180.973 109.335C167.153 94.1056 152.73 90.5651 152.73 73.771C152.73 55.4672 136.746 41.4309 108.769 51.2029C78.7724 61.6805 58 86.9535 58 118.44C58 157.409 90.6652 189 130.96 189C137.587 189 144.009 188.145 150.112 186.544L150.11 186.537C180.973 177.904 206.274 137.218 180.973 109.335ZM149.936 101.97C145.67 107.249 133.853 104.163 129.292 96.693C125.272 90.1093 126.743 80.6941 133.702 76.543C137.735 74.1369 143.054 76.5046 144.066 80.982C144.89 84.6255 146.58 89.1394 150.021 93.2694C152.118 95.7874 151.995 99.4224 149.936 101.97Z" fill="#E6BE94"/>
<path d="M100.332 100.231C108.113 100.231 114.42 94.1306 114.42 86.6055C114.42 79.0803 108.113 72.98 100.332 72.98C92.5504 72.98 86.2426 79.0803 86.2426 86.6055C86.2426 94.1306 92.5504 100.231 100.332 100.231Z" fill="#FF4F19"/>
<path d="M103.815 87.968C106.539 87.968 108.747 85.8329 108.747 83.199C108.747 80.5651 106.539 78.4299 103.815 78.4299C101.092 78.4299 98.8841 80.5651 98.8841 83.199C98.8841 85.8329 101.092 87.968 103.815 87.968Z" fill="#FF8C62"/>
<path d="M86.2102 134.373C93.9913 134.373 100.299 128.273 100.299 120.747C100.299 113.222 93.9913 107.122 86.2102 107.122C78.4291 107.122 72.1213 113.222 72.1213 120.747C72.1213 128.273 78.4291 134.373 86.2102 134.373Z" fill="#FFCD00"/>
<path d="M89.6941 122.11C92.4175 122.11 94.6253 119.975 94.6253 117.341C94.6253 114.707 92.4175 112.572 89.6941 112.572C86.9706 112.572 84.7628 114.707 84.7628 117.341C84.7628 119.975 86.9706 122.11 89.6941 122.11Z" fill="#FFE671"/>
<path d="M102.621 166.176C110.402 166.176 116.71 160.076 116.71 152.551C116.71 145.026 110.402 138.925 102.621 138.925C94.8395 138.925 88.5317 145.026 88.5317 152.551C88.5317 160.076 94.8395 166.176 102.621 166.176Z" fill="#00C37A"/>
<path d="M106.104 153.913C108.828 153.913 111.035 151.778 111.035 149.144C111.035 146.511 108.828 144.375 106.104 144.375C103.381 144.375 101.173 146.511 101.173 149.144C101.173 151.778 103.381 153.913 106.104 153.913Z" fill="#60DC4D"/>
<path d="M137.988 177.619C145.769 177.619 152.077 171.519 152.077 163.994C152.077 156.469 145.769 150.368 137.988 150.368C130.207 150.368 123.899 156.469 123.899 163.994C123.899 171.519 130.207 177.619 137.988 177.619Z" fill="#4CD7FF"/>
<path d="M141.472 165.356C144.195 165.356 146.403 163.221 146.403 160.587C146.403 157.954 144.195 155.818 141.472 155.818C138.748 155.818 136.541 157.954 136.541 160.587C136.541 163.221 138.748 165.356 141.472 165.356Z" fill="#AEEFFF"/>
<path d="M163.877 152.52C171.658 152.52 177.966 146.419 177.966 138.894C177.966 131.369 171.658 125.269 163.877 125.269C156.096 125.269 149.788 131.369 149.788 138.894C149.788 146.419 156.096 152.52 163.877 152.52Z" fill="#009BCA"/>
<path d="M167.361 140.257C170.084 140.257 172.292 138.122 172.292 135.488C172.292 132.854 170.084 130.719 167.361 130.719C164.637 130.719 162.43 132.854 162.43 135.488C162.43 138.122 164.637 140.257 167.361 140.257Z" fill="#4CD7FF"/>
</g>
</g>
<defs>
<filter id="filter0_d" x="-8" y="-4.08862" width="266.8" height="266.8" filterUnits="userSpaceOnUse" color-interpolation-filters="sRGB">
<feFlood flood-opacity="0" result="BackgroundImageFix"/>
<feColorMatrix in="SourceAlpha" type="matrix" values="0 0 0 0 0 0 0 0 0 0 0 0 0 0 0 0 0 0 127 0"/>
<feOffset dy="4"/>
<feGaussianBlur stdDeviation="2"/>
<feColorMatrix type="matrix" values="0 0 0 0 0 0 0 0 0 0 0 0 0 0 0 0 0 0 0.25 0"/>
<feBlend mode="normal" in2="BackgroundImageFix" result="effect1_dropShadow"/>
<feBlend mode="normal" in="SourceGraphic" in2="effect1_dropShadow" result="shape"/>
</filter>
<filter id="filter1_d" x="48" y="42" width="153.318" height="161" filterUnits="userSpaceOnUse" color-interpolation-filters="sRGB">
<feFlood flood-opacity="0" result="BackgroundImageFix"/>
<feColorMatrix in="SourceAlpha" type="matrix" values="0 0 0 0 0 0 0 0 0 0 0 0 0 0 0 0 0 0 127 0"/>
<feOffset dy="4"/>
<feGaussianBlur stdDeviation="5"/>
<feColorMatrix type="matrix" values="0 0 0 0 0 0 0 0 0 0 0 0 0 0 0 0 0 0 0.25 0"/>
<feBlend mode="normal" in2="BackgroundImageFix" result="effect1_dropShadow"/>
<feBlend mode="normal" in="SourceGraphic" in2="effect1_dropShadow" result="shape"/>
</filter>
<clipPath id="clip0">
<rect width="250" height="250" fill="white"/>
</clipPath>
</defs>
</svg>
